<svg xmlns="http://www.w3.org/2000/svg" xmlns:xlink="http://www.w3.org/1999/xlink" id="visual" version="1.1" viewBox="0 405 900 196"><rect x="0" y="0" width="900" height="600" fill="none"/><path d="M0 405L21.5 405.3C43 405.7 86 406.3 128.8 413.7C171.7 421 214.3 435 257.2 436.8C300 438.7 343 428.3 385.8 431.2C428.7 434 471.3 450 514.2 452.3C557 454.7 600 443.3 642.8 440.3C685.7 437.3 728.3 442.7 771.2 444C814 445.3 857 442.7 878.5 441.3L900 440L900 601L878.5 601C857 601 814 601 771.2 601C728.3 601 685.7 601 642.8 601C600 601 557 601 514.2 601C471.3 601 428.7 601 385.8 601C343 601 300 601 257.2 601C214.3 601 171.7 601 128.8 601C86 601 43 601 21.5 601L0 601Z" fill="#005B96" stroke-linecap="round" stroke-linejoin="miter"/></svg>