<?xml version="1.0" encoding="iso-8859-1"?>
<!-- Uploaded to: SVG Repo, www.svgrepo.com, Generator: SVG Repo Mixer Tools -->
<svg fill="#fff" height="800px" width="800px" version="1.1" id="Layer_1" xmlns="http://www.w3.org/2000/svg" xmlns:xlink="http://www.w3.org/1999/xlink" 
	 viewBox="0 0 512 512" xml:space="preserve">
<g>
	<g>
		<path d="M501.438,132.641c-1.391-4.204-5.923-6.481-10.129-5.095c-4.204,1.391-6.484,5.925-5.095,10.129
			c4.527,13.686,5.477,20.748,5.477,24.263c0,28.585-23.256,51.841-51.841,51.841c-28.585,0-51.841-23.256-51.841-51.841
			c0-22.341,32.728-90.79,51.826-128.017c7.806,15.243,20.729,41.148,31.701,66.338c1.769,4.061,6.496,5.918,10.551,4.148
			c4.06-1.768,5.916-6.492,4.148-10.551c-17.207-39.499-39.093-80.646-39.311-81.057c-2.961-5.554-11.189-5.554-14.15,0
			c-6.222,11.676-60.8,115.062-60.8,149.14c0,6.1,0.822,12.009,2.338,17.637h-93.944c0.425-0.776,0.848-1.548,1.278-2.331
			c13.781-25.1,29.401-53.549,29.401-92.266C311.048,38.12,272.928,0,226.071,0s-84.977,38.12-84.977,84.977
			c0,8.979,0.856,17.964,2.546,26.703c0.839,4.347,5.046,7.196,9.391,6.349c4.347-0.839,7.19-5.045,6.349-9.391
			c-1.517-7.849-2.253-15.588-2.253-23.661c0-38.015,30.928-68.944,68.944-68.944s68.944,30.928,68.944,68.944
			c0,34.604-13.941,59.995-27.421,84.551c-10.99,20.018-21.437,39.04-23.512,61.353h-36.019
			c-2.076-22.312-12.521-41.335-23.511-61.351c-4.626-8.427-9.411-17.14-13.608-26.243c-1.855-4.021-6.616-5.775-10.637-3.923
			c-4.021,1.853-5.776,6.616-3.923,10.637c4.433,9.614,9.355,18.577,14.114,27.245c0.43,0.782,0.852,1.554,1.277,2.329H110.63
			c-2.1,0-4.184,0.863-5.669,2.347L6.623,280.26c-1.485,1.487-2.347,3.568-2.347,5.669v218.054c0,4.428,3.588,8.017,8.017,8.017
			h94.419c4.428,0,8.017-3.588,8.017-8.017c0-4.428-3.588-8.017-8.017-8.017H20.309V293.946h90.322c4.428,0,8.017-3.588,8.017-8.017
			v-90.321h61.614c7.09,14.25,12.139,27.961,12.139,43.29c0,19.024-15.056,46.176-40.275,72.631
			c-24.299,25.491-47.162,39.068-54.322,39.068H80.701c-4.428,0-8.017,3.588-8.017,8.017v42.756c0,4.428,3.588,8.017,8.017,8.017
			h26.188v34.739c0,4.428,3.588,8.017,8.017,8.017h222.33c4.428,0,8.017-3.588,8.017-8.017v-34.739h26.188
			c4.428,0,8.017-3.588,8.017-8.017v-42.756c0-4.428-3.588-8.017-8.017-8.017h-17.102c-7.161,0-30.023-13.577-54.322-39.068
			c-25.218-26.455-40.275-53.607-40.275-72.631c0-15.329,5.049-29.04,12.139-43.29h109.072
			c10.454,18.214,29.099,31.139,50.88,33.715v266.644H147.329c-4.428,0-8.017,3.588-8.017,8.017c0,4.428,3.588,8.017,8.017,8.017
			H439.85c4.428,0,8.017-3.588,8.017-8.017V229.323c33.659-3.982,59.858-32.673,59.858-67.385
			C507.724,155.015,505.668,145.434,501.438,132.641z M102.614,277.912H31.646l70.968-70.968V277.912z M329.219,436.109H122.923
			v-26.722h206.297V436.109z M363.424,366.63v26.722H88.718V366.63H363.424z M288.41,322.592
			c9.532,9.998,20.647,20.042,31.484,28.005H132.248c10.838-7.963,21.952-18.007,31.484-28.005
			c12.366-12.973,39.817-44.803,44.127-75.678h36.424C248.593,277.789,276.044,309.619,288.41,322.592z"/>
	</g>
</g>
<g>
	<g>
		<path d="M474.054,153.921c-4.428,0-8.017,3.588-8.017,8.017c0,14.441-11.747,26.188-26.188,26.188
			c-4.428,0-8.017,3.588-8.017,8.017s3.588,8.017,8.017,8.017c23.281,0,42.221-18.941,42.221-42.221
			C482.071,157.509,478.483,153.921,474.054,153.921z"/>
	</g>
</g>
</svg>