<svg width="622" height="622" viewBox="0 0 622 622" fill="none" xmlns="http://www.w3.org/2000/svg">
<path d="M181.417 259.167V311C181.417 328.279 191.783 362.833 233.25 362.833C274.717 362.833 285.083 328.279 285.083 311V259.167M362.833 259.167L401.708 311M401.708 311L440.583 362.833M401.708 311L440.583 259.167M401.708 311L362.833 362.833" stroke="#fff" stroke-width="32" stroke-linecap="round" stroke-linejoin="round"/>
<path d="M311 570.167C454.134 570.167 570.167 454.134 570.167 311C570.167 167.866 454.134 51.8334 311 51.8334C167.866 51.8334 51.8335 167.866 51.8335 311C51.8335 454.134 167.866 570.167 311 570.167Z" stroke="#fff" stroke-width="32" stroke-linecap="round" stroke-linejoin="round"/>
</svg>
